<svg xmlns="http://www.w3.org/2000/svg" width="408.656" height="461.077" viewBox="0 0 408.656 461.077"><g transform="translate(-51.045 -0.001)"><path d="M605.159,185.691h-2.525V116.506a40.044,40.044,0,0,0-40.044-40.044H416.006a40.044,40.044,0,0,0-40.044,40.044V496.069a40.044,40.044,0,0,0,40.044,40.044H562.589a40.044,40.044,0,0,0,40.043-40.044V234.939h2.526Z" transform="translate(-284.382 -76.461)" fill="#cfcfcf"/><path d="M571.059,93.335H551.927a14.207,14.207,0,0,1-13.156,19.573H454.795a14.207,14.207,0,0,1-13.154-19.573H423.77a29.9,29.9,0,0,0-29.9,29.9V502.251a29.9,29.9,0,0,0,29.9,29.9H571.059a29.9,29.9,0,0,0,29.9-29.9h0V123.239a29.9,29.9,0,0,0-29.9-29.9Z" transform="translate(-291.236 -82.921)" fill="#fff"/><path d="M521.876,328.6a15.083,15.083,0,0,1,7.55-13.069,15.09,15.09,0,1,0,0,26.136A15.08,15.08,0,0,1,521.876,328.6Z" transform="translate(-334.466 -167.209)" fill="#ccc"/><path d="M552.613,328.6a15.082,15.082,0,0,1,7.551-13.07,15.09,15.09,0,1,0,0,26.136,15.08,15.08,0,0,1-7.548-13.066Z" transform="translate(-346.233 -167.209)" fill="#ccc"/><circle cx="15.09" cy="15.09" r="15.09" transform="translate(209.83 146.303)" fill="#61a8dd"/><path d="M576.36,355.861H488.413a3.162,3.162,0,0,1-3.158-3.158V264.755a3.162,3.162,0,0,1,3.158-3.158H576.36a3.162,3.162,0,0,1,3.158,3.158V352.7A3.162,3.162,0,0,1,576.36,355.861Zm-87.947-93a1.9,1.9,0,0,0-1.895,1.895V352.7a1.9,1.9,0,0,0,1.895,1.895H576.36a1.9,1.9,0,0,0,1.895-1.895V264.756a1.9,1.9,0,0,0-1.895-1.895Z" transform="translate(-326.222 -147.336)" fill="#ccc"/><rect width="134.885" height="1.263" transform="translate(134.891 275.94)" fill="#ccc"/><path d="M4.26,0A4.26,4.26,0,1,1,0,4.26,4.26,4.26,0,0,1,4.26,0Z" transform="translate(134.891 259.533)" fill="#61a8dd"/><rect width="134.885" height="1.263" transform="translate(134.891 318.535)" fill="#ccc"/><circle cx="4.26" cy="4.26" r="4.26" transform="translate(134.891 302.129)" fill="#61a8dd"/><path d="M632.526,658.459H589.9a2.78,2.78,0,0,1-2.777-2.777V640.741a2.78,2.78,0,0,1,2.777-2.777h42.627a2.78,2.78,0,0,1,2.777,2.777v14.941a2.78,2.78,0,0,1-2.778,2.777Z" transform="translate(-365.219 -291.419)" fill="#61a8dd"/><path d="M4.26,0A4.26,4.26,0,1,1,0,4.26,4.26,4.26,0,0,1,4.26,0Z" transform="translate(148.786 259.533)" fill="#61a8dd"/><circle cx="4.26" cy="4.26" r="4.26" transform="translate(162.681 259.533)" fill="#61a8dd"/><path d="M4.26,0A4.26,4.26,0,1,1,0,4.26,4.26,4.26,0,0,1,4.26,0Z" transform="translate(148.786 302.129)" fill="#61a8dd"/><circle cx="4.26" cy="4.26" r="4.26" transform="translate(162.681 302.129)" fill="#61a8dd"/><path d="M655.959,822.606H250.445c-.868,0-1.571-.337-1.571-.752s.7-.752,1.571-.752H655.959c.867,0,1.571.337,1.571.752S656.827,822.606,655.959,822.606Z" transform="translate(-197.829 -361.528)" fill="#3f3d56"/><path d="M786.731,554.331a6.23,6.23,0,0,1,.871.486L815.283,543l.988-7.292,11.061-.068-.653,16.724-36.537,9.662a6.558,6.558,0,0,1-.276.746,6.317,6.317,0,1,1-3.135-8.444Z" transform="translate(-438.226 -252.247)" fill="#ffb8b8"/><path d="M630.054,716.918h-7.567l-3.6-29.185h11.167Z" transform="translate(-236.926 -263.281)" fill="#ffb8b8"/><path d="M610.264,731.518h14.592v9.188h-23.78A9.188,9.188,0,0,1,610.264,731.518Z" transform="translate(-230.107 -280.043)" fill="#2f2e41"/><path d="M675.992,713.541l-7.53.742-6.444-28.691,11.113-1.095Z" transform="translate(-253.437 -262.043)" fill="#ffb8b8"/><path d="M9.188,0H23.78V9.188H0A9.188,9.188,0,0,1,9.188,0Z" transform="translate(400.288 451.519) rotate(-5.625)" fill="#2f2e41"/><circle cx="15.158" cy="15.158" r="15.158" transform="translate(380.076 222.191)" fill="#ffb8b8"/><path d="M837.3,735.749a2.759,2.759,0,0,1-2.725-2.282c-3.916-21.74-16.718-92.826-17.024-94.8a.891.891,0,0,1-.01-.137v-5.3a.919.919,0,0,1,.172-.538l1.691-2.369a.912.912,0,0,1,.706-.386c9.642-.452,41.218-1.777,42.743.129h0c1.532,1.915.991,7.719.867,8.863l.006.119,14.186,90.722a2.785,2.785,0,0,1-2.293,3.169l-8.86,1.46a2.79,2.79,0,0,1-3.1-1.909c-2.741-8.757-11.929-38.214-15.114-49.613a.308.308,0,0,0-.605.086c.159,10.866.544,38.588.676,48.163l.014,1.031a2.789,2.789,0,0,1-2.526,2.8l-8.544.776C837.473,735.745,837.386,735.749,837.3,735.749Z" transform="translate(-453.43 -288.014)" fill="#2f2e41"/><path d="M839.358,494.379c-2.645,1.573-4.228,4.462-5.137,7.4a70.158,70.158,0,0,0-3.015,16.762l-.96,17.034-11.884,45.159c10.3,8.715,16.241,6.734,30.106-.394s15.449,2.377,15.449,2.377l2.773-38.424,3.961-41.988a18.617,18.617,0,0,0-3-2.885,30.648,30.648,0,0,0-26.194-5.552Z" transform="translate(-453.744 -235.911)" fill="#61a8dd"/><path d="M840.72,567.386a6.5,6.5,0,0,1,.926.434l27.371-13.7.454-7.422,11.29-.778.605,16.918-36.578,12.1a6.478,6.478,0,1,1-4.069-7.549Z" transform="translate(-458.966 -256.182)" fill="#ffb8b8"/><path d="M893.786,507.9c6.734,2.377,7.921,28.127,7.921,28.127-7.922-4.357-17.43,2.773-17.43,2.773s-1.981-6.734-4.357-15.449a15.139,15.139,0,0,1,3.169-14.261S887.051,505.526,893.786,507.9Z" transform="translate(-477.076 -241.316)" fill="#61a8dd"/><path d="M872.161,451.92c-1.889-1.511-4.465,1.235-4.465,1.235l-1.511-13.6s-9.443,1.131-15.487-.377-6.988,5.477-6.988,5.477a48.5,48.5,0,0,1-.189-8.5c.377-3.4,5.288-6.8,13.976-9.066s13.221,7.555,13.221,7.555C876.762,437.668,874.05,453.431,872.161,451.92Z" transform="translate(-463.335 -210.561)" fill="#2f2e41"/></g></svg>