<svg xmlns="http://www.w3.org/2000/svg" width="57.999" height="64.445" viewBox="0 0 57.999 64.445">
  <g id="User" transform="translate(0.999 3.709)">
    <rect id="Area" width="56" height="58" transform="translate(0 -0.487)" fill="#fcfcfc" opacity="0"/>
    <g id="Icon" transform="translate(4.387 10.321)">
      <path id="_7113967a-5113-40ac-be06-9ec85e414b32" data-name="7113967a-5113-40ac-be06-9ec85e414b32" d="M64.444,70.889a3.222,3.222,0,0,1-3.222-3.222V61.222a9.677,9.677,0,0,0-9.666-9.667H25.778a9.678,9.678,0,0,0-9.667,9.667v6.445a3.222,3.222,0,1,1-6.444,0V61.222A16.129,16.129,0,0,1,25.778,45.111H51.556a16.129,16.129,0,0,1,16.11,16.111v6.445A3.222,3.222,0,0,1,64.444,70.889Z" transform="translate(-15.053 -20.474)" fill="#61a8dd"/>
      <path id="_31ef616b-b983-4a31-b0d5-3810365302ec" data-name="31ef616b-b983-4a31-b0d5-3810365302ec" d="M12.889-3.222A16.111,16.111,0,1,1-3.222,12.889,16.129,16.129,0,0,1,12.889-3.222Zm0,25.778a9.667,9.667,0,1,0-9.667-9.667A9.678,9.678,0,0,0,12.889,22.556Z" transform="translate(10.725 -10.808)" fill="#61a8dd"/>
    </g>
  </g>
</svg>
