<svg xmlns="http://www.w3.org/2000/svg" width="74.983" height="75" viewBox="0 0 74.983 75"><g transform="translate(2.5 2.5)"><rect width="70" height="70" fill="#fcfcfc" opacity="0"/><g transform="translate(0.018 0)"><path d="M34.734,64H5a2.5,2.5,0,0,1-2.5-2.5V31.759a2.5,2.5,0,0,1,.732-1.768L26.845,6.373a23.5,23.5,0,1,1,33.241,33.24L36.5,63.26A2.5,2.5,0,0,1,34.734,64ZM7.5,59H33.7L56.547,36.08A18.5,18.5,0,0,0,30.38,9.909L7.5,32.795Z" transform="translate(5.498 -1.991)" fill="#61a8dd"/><path d="M0,51.5a2.492,2.492,0,0,1-1.768-.732,2.5,2.5,0,0,1,0-3.536l49-49a2.5,2.5,0,0,1,3.536,0,2.5,2.5,0,0,1,0,3.536l-49,49A2.492,2.492,0,0,1,0,51.5Z" transform="translate(-0.017 21)" fill="#61a8dd"/><path d="M29.738,2.5H0A2.5,2.5,0,0,1-2.5,0,2.5,2.5,0,0,1,0-2.5H29.738a2.5,2.5,0,0,1,2.5,2.5A2.5,2.5,0,0,1,29.738,2.5Z" transform="translate(24.49 45.511)" fill="#61a8dd"/></g></g></svg>