<svg xmlns="http://www.w3.org/2000/svg" width="41" height="41" viewBox="0 0 41 41"><g transform="translate(2.5 2.5)"><rect width="36" height="36" fill="#fcfcfc" opacity="0"/><g transform="translate(0 0)"><path d="M33.75,59.875a2.5,2.5,0,0,1-2.5-2.5A17.77,17.77,0,0,0,13.5,39.625a2.5,2.5,0,0,1,0-5,22.733,22.733,0,0,1,22.75,22.75A2.5,2.5,0,0,1,33.75,59.875Z" transform="translate(-13.5 -21.375)" fill="#61a8dd"/><path d="M49.5,52A2.5,2.5,0,0,1,47,49.5,33.538,33.538,0,0,0,13.5,16a2.5,2.5,0,0,1,0-5A38.541,38.541,0,0,1,48.973,34.513,38.261,38.261,0,0,1,52,49.5,2.5,2.5,0,0,1,49.5,52Z" transform="translate(-13.5 -13.5)" fill="#61a8dd"/><path d="M2.25-2.5A4.75,4.75,0,1,1-2.5,2.25,4.755,4.755,0,0,1,2.25-2.5Z" transform="translate(0 31.5)" fill="#61a8dd"/></g></g></svg>